<svg width="1920" height="1080" viewBox="0 0 1920 1080" fill="none" xmlns="http://www.w3.org/2000/svg">
<path d="M549 891.5V261L0.5 196.559V908.5L549 891.5Z" fill="#C76363" fill-opacity="0.5"/>
<path fill-rule="evenodd" clip-rule="evenodd" d="M570.594 896.932V837.902L1006.29 927.206L1549.95 852.138V909.08L971.1 994.778L570.594 896.932Z" fill="#FFFF00" fill-opacity="0.502"/>
<path fill-rule="evenodd" clip-rule="evenodd" d="M570.594 837.902V786.844L1007.05 851.758L1549.95 800.51V852.137L1006.29 927.206L570.594 837.902Z" fill="#FF0000" fill-opacity="0.502"/>
<path fill-rule="evenodd" clip-rule="evenodd" d="M570.594 786.844V734.457L1007.05 776.309L1549.95 744.137V800.51L1006.29 851.758L570.594 786.844Z" fill="#FFFF00" fill-opacity="0.502"/>
<path fill-rule="evenodd" clip-rule="evenodd" d="M570.594 734.742V683.684L1007.05 700.861L1549.95 685.961V744.137L1006.29 776.309L570.594 734.742Z" fill="#FF0000" fill-opacity="0.502"/>
<path fill-rule="evenodd" clip-rule="evenodd" d="M570.594 683.779V629.779L1007.05 625.318L1549.95 627.691V685.962L1006.29 700.767L570.594 683.779Z" fill="#FFFF00" fill-opacity="0.502"/>
<path fill-rule="evenodd" clip-rule="evenodd" d="M570.594 629.78V578.722L1007.05 549.871L1549.95 569.516V627.692L1006.29 625.319L570.594 629.78Z" fill="#FF0000" fill-opacity="0.502"/>
<path fill-rule="evenodd" clip-rule="evenodd" d="M570.594 578.721V524.626L1007.05 474.422L1549.95 511.339V569.515L1006.29 549.87L570.594 578.721Z" fill="#FFFF00" fill-opacity="0.502"/>
<path fill-rule="evenodd" clip-rule="evenodd" d="M570.594 524.626V473.568L1007.05 395.652L1549.95 453.164V511.34L1006.29 474.422L570.594 524.626Z" fill="#FF0000" fill-opacity="0.502"/>
<path fill-rule="evenodd" clip-rule="evenodd" d="M570.594 473.569V419.569L1007.05 320.205L1549.95 394.989V453.165L1006.29 395.653L570.594 473.569Z" fill="#FFFF00" fill-opacity="0.502"/>
<path fill-rule="evenodd" clip-rule="evenodd" d="M570.594 419.568V368.51L1007.05 241.34L1549.95 336.813V394.988L1006.29 320.205L570.594 419.568Z" fill="#FF0000" fill-opacity="0.502"/>
<path fill-rule="evenodd" clip-rule="evenodd" d="M570.594 368.51V314.795L1002.02 168.549L1533.06 274.081V275.125L1549.95 278.637V336.812L1006.29 241.34L570.594 368.51Z" fill="#FFFF00" fill-opacity="0.502"/>
<path fill-rule="evenodd" clip-rule="evenodd" d="M570.594 314.794V314.509L592.412 307.107L592.127 241.528L1007.05 76.8711L1531.35 203.282L1533.06 274.08L1002.02 168.548L570.594 314.794Z" fill="#FF0000" fill-opacity="0.502"/>
</svg>
