<svg xmlns="http://www.w3.org/2000/svg" width="27" height="24" viewBox="0 0 27 24">
    <path fill="#FFF" d="M23.792 1.526c-.3-.898-1.197-1.497-2.095-1.497H5.237C4.19.03 3.442.628 3.142 1.526L0 10.504v11.97c0 .898.599 1.497 1.496 1.497h1.497c.897 0 1.496-.599 1.496-1.497v-1.496h17.956v1.496c0 .898.599 1.497 1.496 1.497h1.497c.897 0 1.496-.599 1.496-1.497v-11.97l-3.142-8.978zM5.237 16.489c-1.197 0-2.244-1.047-2.244-2.245C2.993 13.047 4.04 12 5.237 12c1.197 0 2.245 1.047 2.245 2.244 0 1.198-1.048 2.245-2.245 2.245zm16.46 0c-1.197 0-2.245-1.047-2.245-2.245 0-1.197 1.048-2.244 2.245-2.244s2.244 1.047 2.244 2.244c0 1.198-1.047 2.245-2.244 2.245zM2.993 9.007l2.244-6.733h16.46l2.244 6.733H2.993z"/>
</svg>
