<svg width="30" height="30" viewBox="0 0 30 30" fill="none" xmlns="http://www.w3.org/2000/svg">
<path fill-rule="evenodd" clip-rule="evenodd" d="M0 15C0 6.72914 6.72914 0 15 0C23.2709 0 30 6.72914 30 15C30 23.2709 23.2709 30 15 30C6.72914 30 0 23.2709 0 15ZM21.0668 20.1831C21.311 19.939 21.311 19.5433 21.0668 19.2993L16.7676 14.9999L21.0669 10.7007C21.311 10.4566 21.311 10.0608 21.0669 9.8168L20.1832 8.93309C19.939 8.68904 19.5434 8.68904 19.2993 8.93309L15 13.2323L10.7007 8.93309C10.4566 8.68904 10.061 8.68904 9.8168 8.93309L8.93314 9.8168C8.68898 10.0609 8.68898 10.4566 8.93314 10.7007L13.2324 14.9999L8.93314 19.2993C8.68898 19.5434 8.68898 19.9391 8.93314 20.1831L9.8168 21.0669C10.061 21.3109 10.4566 21.3109 10.7007 21.0669L15 16.7676L19.2993 21.0668C19.5434 21.3108 19.939 21.3108 20.1832 21.0668L21.0668 20.1831Z" fill="black"/>
</svg>
