<svg viewBox="0 0 1920 1080" fill="none" xmlns="http://www.w3.org/2000/svg">
    <path fill-rule="evenodd" clip-rule="evenodd" d="M403 443.5L318.5 455V371L403 329.5L1265 424.5V486.5L403 443.5Z" style="fill: rgb(94, 52, 172);"></path>
    <path fill-rule="evenodd" clip-rule="evenodd" d="M403 329.5L318.5 371V287L400 187.5L1265 347.5V424.5L403 329.5Z" style="fill: rgb(94, 52, 172);"></path>
    <path fill-rule="evenodd" clip-rule="evenodd" d="M402 1004L318.5 872.5V805L402 897L1265 735V792L1168 816V834.5L1110 850L1075 839L853 893.5V916.5L755 942.5L727 924.5L402 1004Z" data-id="1" style="fill: rgb(94, 52, 172);"></path>
    <path fill-rule="evenodd" clip-rule="evenodd" d="M402 897L318.5 805V719.5L402.5 783.5L1265 672.5V735L402 897Z" style="fill: rgb(94, 52, 172);"></path>
    <path fill-rule="evenodd" clip-rule="evenodd" d="M402.5 783.5L318.5 719.5V628.5L402.5 669.5L1265 611V672.5L402.5 783.5Z" style="fill: rgb(94, 52, 172);"></path>
    <path fill-rule="evenodd" clip-rule="evenodd" d="M403 557L318.5 541V455L403 443.5L1265 486.5V549L403 557Z" style="fill: rgb(94, 52, 172);"></path>
    <path fill-rule="evenodd" clip-rule="evenodd" d="M402.5 669.5L318.5 628.5V541L402.5 557L1265 549V611L402.5 669.5Z" style="fill: rgb(94, 52, 172);"></path>
</svg>