<svg width="45" height="48" viewBox="0 0 45 48" fill="none" xmlns="http://www.w3.org/2000/svg">
<path fill-rule="evenodd" clip-rule="evenodd" d="M11.3964 18.6667C11.3964 14.9853 14.1115 12 17.4596 12H27.1608C30.5089 12 33.224 14.9853 33.224 18.6667V29.3333C33.224 33.0147 30.5089 36 27.1608 36H17.4596C14.1115 36 11.3964 33.0147 11.3964 29.3333V18.6667ZM30.7987 16C30.7987 15.264 30.2555 14.6667 29.5861 14.6667C28.9167 14.6667 28.3734 15.264 28.3734 16C28.3734 16.736 28.9167 17.3333 29.5861 17.3333C30.2555 17.3333 30.7987 16.736 30.7987 16ZM22.3102 17.3333C25.6583 17.3333 28.3734 20.3187 28.3734 24C28.3734 27.6813 25.6583 30.6667 22.3102 30.6667C18.9621 30.6667 16.247 27.6813 16.247 24C16.247 20.3187 18.9621 17.3333 22.3102 17.3333ZM18.6723 24C18.6723 21.7909 20.301 20 22.3102 20C24.3194 20 25.9481 21.7909 25.9481 24C25.9481 26.2091 24.3194 28 22.3102 28C20.301 28 18.6723 26.2091 18.6723 24Z" fill="white"/>
</svg>
