<svg width="45" height="48" viewBox="0 0 45 48" fill="none" xmlns="http://www.w3.org/2000/svg">
<path fill-rule="evenodd" clip-rule="evenodd" d="M28.599 33.7792C28.8919 34.0072 29.2693 34.0642 29.6058 33.9242C29.9423 33.7832 30.1897 33.4672 30.2643 33.0842C31.0546 29.0002 32.9717 18.6632 33.6911 14.9481C33.7457 14.6681 33.6547 14.3771 33.4547 14.1901C33.2546 14.0031 32.9772 13.9491 32.7298 14.0501C28.9164 15.6022 17.1726 20.4472 12.3724 22.4002C12.0678 22.5242 11.8695 22.8462 11.8795 23.1992C11.8904 23.5532 12.1069 23.8602 12.4188 23.9632C14.5715 24.6712 17.3972 25.6562 17.3972 25.6562C17.3972 25.6562 18.7178 30.0412 19.4062 32.2712C19.4926 32.5512 19.6918 32.7712 19.9546 32.8472C20.2165 32.9222 20.4967 32.8432 20.6922 32.6402C21.7981 31.4922 23.5079 29.7172 23.5079 29.7172C23.5079 29.7172 26.7565 32.3362 28.599 33.7792ZM18.5859 25.1022L20.1129 30.6402L20.4521 27.1332C20.4521 27.1332 26.3518 21.2822 29.715 17.9472C29.8132 17.8492 29.8268 17.6852 29.745 17.5702C29.664 17.4552 29.5149 17.4282 29.403 17.5062C25.5051 20.2432 18.5859 25.1022 18.5859 25.1022Z" fill="white"/>
</svg>
