<svg xmlns="http://www.w3.org/2000/svg" width="20" height="24" viewBox="0 0 20 24">
    <path fill="#FFF" d="M9.242.006C4.477.173.518 3.891.06 8.637c-.093.95-.04 1.87.128 2.75 0 0 .015.103.064.3.148.658.369 1.298.644 1.898.96 2.272 3.177 6.074 8.154 10.21.305.255.753.255 1.063 0 4.977-4.132 7.195-7.933 8.159-10.215.28-.6.496-1.235.644-1.898.044-.192.064-.3.064-.3.113-.59.172-1.196.172-1.815 0-5.4-4.47-9.753-9.91-9.56zm.34 14.321c-2.568 0-4.648-2.08-4.648-4.647s2.08-4.648 4.648-4.648c2.567 0 4.647 2.08 4.647 4.648 0 2.567-2.08 4.647-4.647 4.647z"/>
</svg>
