<svg width="28" height="28" viewBox="0 0 28 28" fill="none" xmlns="http://www.w3.org/2000/svg">
<path id="Shape" fill-rule="evenodd" clip-rule="evenodd" d="M4.09901 4.10201C9.56551 -1.36618 18.4299 -1.36749 23.898 4.09901C26.5237 6.72389 27.9992 10.2843 28 13.997C28.0008 17.7103 26.5263 21.2718 23.901 23.898C18.4345 29.3662 9.57022 29.3675 4.10202 23.901C-1.36618 18.4345 -1.36749 9.57021 4.09901 4.10201ZM21.5938 19.8533L21.5957 19.8513C21.8392 19.6047 21.8384 19.2058 21.5937 18.9603L18.8235 16.162L18.8215 16.1601C18.577 15.9145 18.1813 15.9154 17.9378 16.162L16.3682 17.7695C15.9109 18.2275 15.1943 18.2901 14.6657 17.9184C13.7509 17.2734 12.8947 16.5478 12.1071 15.7502C11.4007 15.0404 10.7508 14.2757 10.1635 13.463C9.7768 12.9295 9.83538 12.1911 10.3013 11.7264L11.925 10.0892L11.927 10.0872C12.1705 9.8406 12.1696 9.44163 11.925 9.19609L9.15976 6.40778L9.1578 6.4058C8.91326 6.16027 8.51759 6.16114 8.27408 6.40778L7.39826 7.2909C6.33539 8.34513 5.95442 9.91432 6.41415 11.3444C6.81519 12.5617 7.38148 13.7171 8.09695 14.7777C8.75106 15.7634 9.501 16.6809 10.3358 17.5165C11.243 18.4368 12.2479 19.2537 13.3323 19.9525C14.4995 20.7255 15.7819 21.3051 17.1309 21.6692C18.4698 21.9915 19.8786 21.5852 20.8458 20.5975L21.5938 19.8484V19.8533Z" fill="#C8893E"/>
</svg>
