<svg xmlns="http://www.w3.org/2000/svg" width="24" height="24" viewBox="0 0 24 24">
    <path fill="#FFF" fill-rule="evenodd" d="M18.863 17.238c-.87 0-1.647.344-2.242.881l-8.155-4.747c.057-.263.103-.526.103-.8 0-.275-.046-.538-.103-.801l8.063-4.701c.618.572 1.43.926 2.334.926 1.899 0 3.431-1.532 3.431-3.431s-1.532-3.431-3.431-3.431-3.432 1.532-3.432 3.431c0 .275.046.538.103.8l-8.063 4.702c-.618-.572-1.43-.927-2.334-.927-1.899 0-3.431 1.533-3.431 3.432 0 1.898 1.532 3.431 3.431 3.431.904 0 1.716-.354 2.334-.926l8.143 4.758c-.057.24-.091.492-.091.743 0 1.842 1.498 3.34 3.34 3.34 1.841 0 3.34-1.498 3.34-3.34 0-1.841-1.499-3.34-3.34-3.34z"/>
</svg>
