<svg width="34" height="34" viewBox="0 0 34 34" fill="none" xmlns="http://www.w3.org/2000/svg">
<path fill-rule="evenodd" clip-rule="evenodd" d="M1.32812 0H32.6719C33.4055 0 34 0.594543 34 1.32812V32.6719C34 33.4055 33.4055 34 32.6719 34H1.32812C0.594543 34 0 33.4055 0 32.6719V1.32812C0 0.594543 0.594543 0 1.32812 0ZM2.65625 31.3438H31.3438V2.65625H2.65625V31.3438ZM5.86632 26.8056V22.8388C5.86632 22.1052 6.46086 21.5107 7.19444 21.5107C7.92802 21.5107 8.52257 22.1052 8.52257 22.8388V25.4774H11.1612C11.8948 25.4774 12.4893 26.072 12.4893 26.8056C12.4893 27.5391 11.8948 28.1337 11.1612 28.1337H7.19444C6.46086 28.1337 5.86632 27.5391 5.86632 26.8056ZM22.8388 5.86632C22.1052 5.86632 21.5107 6.46086 21.5107 7.19444C21.5107 7.92802 22.1052 8.52257 22.8388 8.52257H25.4774V11.1612C25.4774 11.8948 26.072 12.4893 26.8056 12.4893C27.5391 12.4893 28.1337 11.8948 28.1337 11.1612V7.19444C28.1337 6.46086 27.5391 5.86632 26.8056 5.86632H22.8388ZM13.7484 21.5797H20.2516C20.9849 21.5797 21.5797 20.9849 21.5797 20.2516V13.7484C21.5797 13.0151 20.9849 12.4203 20.2516 12.4203H13.7484C13.0151 12.4203 12.4203 13.0151 12.4203 13.7484V20.2516C12.4203 20.9849 13.0151 21.5797 13.7484 21.5797ZM18.9234 15.0766H15.0766V18.9234H18.9234V15.0766Z" fill="#CF9856"/>
</svg>
