<svg width="29" height="37" viewBox="0 0 29 37" fill="none" xmlns="http://www.w3.org/2000/svg">
<path fill-rule="evenodd" clip-rule="evenodd" d="M23.2989 17.4258C23.7036 17.5651 24.0089 17.9018 24.108 18.3182C24.2071 18.7346 24.0863 19.1728 23.7877 19.4795L10.3881 33.2465C9.9824 33.6632 9.33888 33.7478 8.83706 33.4392C8.33872 33.1324 8.11986 32.521 8.31038 31.9677L11.8494 21.6896L5.28987 19.431C4.88513 19.2916 4.57988 18.9549 4.48079 18.5385C4.38164 18.1221 4.5025 17.6839 4.80105 17.3772L18.2007 3.61024C18.6088 3.1909 19.253 3.11082 19.7517 3.41757C20.25 3.72428 20.4689 4.33566 20.2784 4.88897L16.7393 15.1671L23.2989 17.4258ZM14.6202 21.3216L12.4929 27.4996L20.6217 19.148L14.7435 17.124C14.0908 16.8992 13.7438 16.1879 13.9686 15.5351L16.0958 9.35713L7.96706 17.7087L13.8452 19.7328C14.498 19.9575 14.8449 20.6689 14.6202 21.3216Z" fill="#CF9856"/>
</svg>
