<svg width="34" height="34" viewBox="0 0 34 34" fill="none" xmlns="http://www.w3.org/2000/svg">
<path d="M34 3.32031V30.6797C34 32.5105 32.5105 34 30.6797 34H27.4478C26.7142 34 26.1197 33.4055 26.1197 32.6719C26.1197 31.9383 26.7142 31.3438 27.4478 31.3438H30.6797C31.046 31.3438 31.3438 31.046 31.3438 30.6797V18.3953H19.6119C18.8783 18.3953 18.2838 17.8008 18.2838 17.0672C18.2838 16.3336 18.8783 15.7391 19.6119 15.7391H31.3438V3.32031C31.3438 2.95404 31.046 2.65625 30.6797 2.65625H15.6768V6.55217C15.6768 7.28575 15.082 7.88029 14.3487 7.88029C13.6151 7.88029 13.0206 7.28575 13.0206 6.55217V2.65625H3.32031C2.95404 2.65625 2.65625 2.95404 2.65625 3.32031V15.6719H13.0206V11.776C13.0206 11.0424 13.6151 10.4478 14.3487 10.4478C15.082 10.4478 15.6768 11.0424 15.6768 11.776V22.2238C15.6768 22.9574 15.082 23.5519 14.3487 23.5519C13.6151 23.5519 13.0206 22.9574 13.0206 22.2238V18.3281H2.65625V30.6797C2.65625 31.046 2.95404 31.3438 3.32031 31.3438H13.0206V27.4478C13.0206 26.7142 13.6151 26.1197 14.3487 26.1197C15.082 26.1197 15.6768 26.7142 15.6768 27.4478V31.3438H22.2238C22.9574 31.3438 23.5519 31.9383 23.5519 32.6719C23.5519 33.4055 22.9574 34 22.2238 34H3.32031C1.48947 34 0 32.5105 0 30.6797V3.32031C0 1.48947 1.48947 0 3.32031 0H30.6797C32.5105 0 34 1.48947 34 3.32031Z" fill="#CF9856"/>
</svg>
